<svg width="492" height="915" viewBox="0 0 492 915" fill="none" xmlns="http://www.w3.org/2000/svg">
<path d="M196.589 723.024C152.5 723.024 196.587 908.938 196.587 915L91.93 915C91.93 865.833 91.9247 639 196.587 644.976L387.27 644.976C394.395 644.976 400.173 640.062 400.173 634C400.173 627.938 394.395 623.024 387.27 623.024L196.589 623.024C138.788 623.024 91.9297 583.167 91.9297 533.999C91.9297 484.833 138.788 444.976 196.589 444.976L387.27 444.976C394.395 444.976 400.173 440.061 400.173 434C400.173 427.939 394.395 423.024 387.27 423.024L196.589 423.024C138.788 423.024 91.9297 383.167 91.9297 334.001C91.9297 284.832 138.787 244.975 196.589 244.975L387.27 244.975C394.395 244.975 400.173 240.062 400.173 233.999C400.173 227.938 394.395 223.023 387.27 223.023L196.589 223.023C138.787 223.023 91.9297 183.166 91.9297 134L183.686 134C183.686 140.061 189.463 144.976 196.589 144.976L387.269 144.976C445.071 144.976 491.929 184.833 491.929 233.999C491.929 283.168 445.071 323.025 387.27 323.025L196.589 323.025C189.463 323.025 183.686 327.938 183.686 334.001C183.686 340.062 189.463 344.977 196.589 344.977L387.27 344.977C445.071 344.977 491.929 384.834 491.929 434C491.929 483.166 445.071 523.023 387.27 523.023L196.589 523.023C189.463 523.023 183.686 527.938 183.686 533.999C183.686 540.062 189.463 544.975 196.589 544.975L387.27 544.975C445.071 544.975 491.929 584.833 491.929 634C491.929 683.167 445.071 723.024 387.27 723.024L196.589 723.024Z" fill="#2F6AD8"/>
<path d="M134.622 0L144.682 68.2539L174.415 5.9977L163.91 74.1846L210.671 23.4578L180.535 85.519L240.169 50.8289L193.079 101.25L260.29 85.679L200.43 119.98L269.245 124.911L201.934 140.044L266.237 165.04L197.456 159.661L251.535 202.5L187.396 177.086L226.445 233.962L172.646 190.771L193.197 256.631L154.518 199.501L154.743 268.492L134.622 202.5L114.501 268.492L114.727 199.501L76.0482 256.631L96.5985 190.771L42.7992 233.962L81.8489 177.086L17.7091 202.5L71.7885 159.661L3.0072 165.04L67.3112 140.044L0 124.911L68.8149 119.98L8.9545 85.679L76.1658 101.25L29.0753 50.8289L88.7105 85.519L58.5743 23.4578L105.335 74.1846L94.8305 5.9977L124.562 68.2539L134.622 0Z" fill="#F0C3D2"/>
</svg>
