<svg width="1920" height="956" viewBox="0 0 1920 971" fill="none" xmlns="http://www.w3.org/2000/svg">
<path d="M960 0.4375C430.629 0.4375 0 394.242 0 878.346L0 970.438H137.143V878.346C137.143 463.409 506.263 125.853 960 125.853C1413.74 125.853 1782.86 463.409 1782.86 878.346V970.438H1920V878.346C1920 394.242 1489.37 0.4375 960 0.4375ZM960 251.268C581.897 251.268 274.286 532.575 274.286 878.346L274.286 970.438L411.429 970.438L411.429 878.346C411.429 601.742 657.531 376.684 960 376.684C1262.47 376.684 1508.57 601.742 1508.57 878.346V970.438H1645.71V878.346C1645.71 532.575 1338.1 251.268 960 251.268ZM960 502.099C733.097 502.099 548.571 670.846 548.571 878.346V970.438H685.714V878.346C685.714 740.012 808.731 627.515 960 627.515C1111.27 627.515 1234.29 740.012 1234.29 878.346V970.438H1371.43V878.346C1371.43 670.846 1186.9 502.099 960 502.099Z" fill="#8DF0BA" fill-opacity="0.3"/>
</svg>
