<svg width="400" height="700" viewBox="0 0 400 700" fill="none" xmlns="http://www.w3.org/2000/svg">
<path d="M104.66 687.195C97.5338 687.195 91.7563 692.928 91.7563 700L0 700C-2.50734e-06 642.639 46.8578 596.138 104.66 596.138L295.34 596.138C302.466 596.138 308.244 590.405 308.244 583.333C308.244 576.261 302.466 570.528 295.34 570.528L104.66 570.528C46.8577 570.528 -7.69198e-06 524.028 -1.01994e-05 466.666C-1.27067e-05 409.305 46.8577 362.805 104.66 362.805L295.34 362.805C302.466 362.805 308.244 357.071 308.244 350C308.244 342.929 302.466 337.195 295.34 337.195L104.66 337.195C46.8577 337.195 -1.78913e-05 290.695 -2.03986e-05 233.334C-2.2906e-05 175.971 46.8577 129.471 104.66 129.471L295.34 129.471C302.466 129.471 308.244 123.739 308.244 116.666C308.244 109.595 302.466 103.861 295.34 103.861L104.66 103.861C46.8577 103.861 -2.80907e-05 57.3605 -3.0598e-05 6.67572e-06L91.7563 2.66493e-06C91.7563 7.07106 97.5338 12.8053 104.66 12.8053L295.34 12.8052C353.142 12.8052 400 59.3052 400 116.666C400 174.029 353.142 220.529 295.34 220.529L104.66 220.529C97.5338 220.529 91.7563 226.261 91.7563 233.334C91.7563 240.405 97.5338 246.139 104.66 246.139L295.34 246.139C353.142 246.139 400 292.639 400 350C400 407.361 353.142 453.861 295.34 453.861L104.66 453.861C97.5338 453.861 91.7563 459.595 91.7563 466.666C91.7563 473.739 97.5338 479.471 104.66 479.471L295.34 479.471C353.142 479.471 400 525.972 400 583.333C400 640.695 353.142 687.195 295.34 687.195L104.66 687.195Z" fill="#2F6AD8"/>
</svg>
